<svg width="48" height="48" fill="none" xmlns="http://www.w3.org/2000/svg"><path d="M25.03 13.914l-10.99-1.67c-.51-.079-1.03.06-1.42.39-.39.341-.62.83-.62 1.34v21.07c0 .551.45 1.001 1 1.001h3.251v-5.25c0-.97.78-1.75 1.75-1.75h2.501c.97 0 1.75.78 1.75 1.75v5.25h4.25v-20.4a1.756 1.756 0 00-1.471-1.731zm-7.53 12.88H16a.75.75 0 010-1.5h1.5a.75.75 0 010 1.5zm0-3H16a.75.75 0 010-1.5h1.5a.75.75 0 010 1.5zm0-3H16a.75.75 0 010-1.5h1.5a.75.75 0 010 1.5zm0-3H16a.75.75 0 010-1.5h1.5a.75.75 0 010 1.5zm5 9H21a.75.75 0 010-1.5h1.5a.75.75 0 010 1.5zm0-3H21a.75.75 0 010-1.5h1.5a.75.75 0 010 1.5zm0-3H21a.75.75 0 010-1.5h1.5a.75.75 0 010 1.5zm0-3H21a.75.75 0 010-1.5h1.5a.75.75 0 010 1.5z" fill="#232536"/><path d="M34.62 22.887l-7.12-1.491v14.649h6.75c.965 0 1.75-.785 1.75-1.75v-9.698a1.74 1.74 0 00-1.38-1.71zm-2.37 10.158h-1.5a.75.75 0 010-1.5h1.5a.75.75 0 010 1.5zm0-3h-1.5a.75.75 0 010-1.5h1.5a.75.75 0 010 1.5zm0-3h-1.5a.75.75 0 010-1.5h1.5a.75.75 0 010 1.5z" fill="#FFD050"/></svg>