<svg width="48" height="48" fill="none" xmlns="http://www.w3.org/2000/svg"><g clip-path="url(#clip0_533_2310)"><path d="M18.116 27.425h-2.584c-.932 0-1.69.793-1.69 1.767v5.723c0 .598.465 1.085 1.038 1.085h3.888c.572 0 1.037-.487 1.037-1.085v-5.723c0-.974-.758-1.767-1.69-1.767zM25.7 23.95h-2.584c-.932 0-1.69.792-1.69 1.766v9.199c0 .598.465 1.085 1.038 1.085h3.888c.572 0 1.037-.487 1.037-1.085v-9.2c0-.973-.758-1.766-1.69-1.766zm7.726-3.961h-2.584c-.932 0-1.69.792-1.69 1.766v13.16c0 .598.466 1.085 1.038 1.085h3.888c.572 0 1.038-.487 1.038-1.085v-13.16c0-.974-.758-1.766-1.69-1.766z" fill="#232536"/><path d="M31.368 12.668a1.475 1.475 0 00-1.375-.662l-4.88.473a1.503 1.503 0 00-1.236.914 1.627 1.627 0 00.14 1.576l.272.402-6.057 4.376-.006.004a2.06 2.06 0 00-.805 1.335c-.088.542.03 1.089.334 1.538a1.95 1.95 0 001.614.87 1.9 1.9 0 001.13-.376l6.067-4.382.282.415a1.478 1.478 0 001.375.662 1.503 1.503 0 001.236-.914l2.049-4.655a1.626 1.626 0 00-.14-1.576z" fill="#FFD050"/></g><defs><clipPath id="clip0_533_2310"><path fill="#fff" transform="translate(13 12)" d="M0 0h22.956v24H0z"/></clipPath></defs></svg>