<svg xmlns="http://www.w3.org/2000/svg" width="23" height="23"><g id="surface1"><path d="M5.004 20.906L3.559 4.7H19.44l-1.449 16.207-6.5 1.801zm0 0" fill="#e44d26"/><path d="M11.5 21.328l5.254-1.457 1.238-13.848H11.5zm0 0" fill="#f16529"/><path d="M11.5 12.035H8.871L8.687 10H11.5V8.012H6.516l.046.531.489 5.48H11.5zm0 5.164h-.008l-2.215-.597-.14-1.586H7.14l.277 3.12 4.074 1.134.008-.004zm0 0" fill="#ebebeb"/><path d="M5.04.293h1.007v.996h.926V.293H7.98v3.023H6.973V2.305h-.926v1.011H5.039zm4.272 1h-.89v-1h2.789v1h-.89v2.023H9.312zm2.34-1h1.055l.648 1.062.649-1.062h1.05v3.023h-1.003v-1.5l-.696 1.075h-.02l-.694-1.075v1.5h-.989zm3.907 0h1.011v2.023h1.422v1H15.56zm0 0"/><path d="M11.492 12.035v1.988h2.45l-.231 2.579-2.219.597v2.07l4.078-1.132.028-.336.468-5.23.047-.536zm0-4.023V10h4.805l.039-.45.09-1.007.047-.531zm0 0" fill="#fff"/></g></svg>