<svg width="48" height="48" fill="none" xmlns="http://www.w3.org/2000/svg"><g clip-path="url(#clip0_533_2337)"><path d="M27.518 19.031c0 .776.63 1.407 1.406 1.407h4.18a9.064 9.064 0 00-.672-2.813h-3.508c-.775 0-1.406.631-1.406 1.406z" fill="#232536"/><path d="M18.377 36h8.438a.703.703 0 00.703-.703v-3.61h1.406v-4.57l-7.031-5.273h-6.329a.703.703 0 00-.703.703 9.155 9.155 0 002.813 6.596v6.154c0 .389.314.703.703.703z" fill="#FFD050"/><path d="M24.002 12a.703.703 0 00-.703.703v.703h-2.942A2.106 2.106 0 0018.377 12c-1.163 0-2.11.946-2.11 2.11 0 1.163.947 2.109 2.11 2.109.915 0 1.689-.59 1.98-1.407h2.942v2.813h-7.16a2.106 2.106 0 00-1.98-1.406c-1.164 0-2.157.946-2.157 2.11 0 1.162.993 2.108 2.156 2.108.916 0 1.689-.59 1.98-1.406h7.16v2.11l6.75 5.062a.703.703 0 01.282.563v4.922h.703c1.163 0 2.11-.947 2.11-2.11v-3.515h2.156a.703.703 0 00.585-1.094l-2.13-3.125h-4.83a2.815 2.815 0 01-2.813-2.813 2.815 2.815 0 012.813-2.812h2.766C30.063 13.686 27.23 12 24.002 12z" fill="#232536"/></g><defs><clipPath id="clip0_533_2337"><path fill="#fff" transform="translate(12 12)" d="M0 0h24v24H0z"/></clipPath></defs></svg>