<svg width="17" height="16" fill="none" xmlns="http://www.w3.org/2000/svg"><g clip-path="url(#clip0_1402_246)"><path d="M5.7 14.5c6.036 0 9.338-5.002 9.338-9.338 0-.14-.003-.285-.01-.425a6.665 6.665 0 001.638-1.7 6.472 6.472 0 01-1.884.516 3.3 3.3 0 001.443-1.815 6.598 6.598 0 01-2.083.796 3.287 3.287 0 00-5.596 2.993A9.323 9.323 0 011.78 2.1a3.286 3.286 0 001.016 4.38 3.287 3.287 0 01-1.487-.409v.04a3.281 3.281 0 002.634 3.22 3.28 3.28 0 01-1.481.056 3.289 3.289 0 003.065 2.281 6.583 6.583 0 01-4.862 1.358 9.312 9.312 0 005.033 1.475z" fill="#6D6E76"/></g><defs><clipPath id="clip0_1402_246"><path fill="#fff" transform="translate(.666)" d="M0 0h16v16H0z"/></clipPath></defs></svg>